<svg width="90" height="62" viewBox="0 0 90 62" fill="none" xmlns="http://www.w3.org/2000/svg">
      <mask id="path-1-inside-1_458_897" fill="white">
            <path d="M0 0H90V62H0V0Z"/>
      </mask>
      <path d="M0 2H90V-2H0V2Z" fill="#6F45E9" mask="url(#path-1-inside-1_458_897)"/>
      <path d="M53 27.9999C53 28.2651 52.8946 28.5195 52.7071 28.707C52.5196 28.8946 52.2652 28.9999 52 28.9999H38C37.7348 28.9999 37.4804 28.8946 37.2929 28.707C37.1054 28.5195 37 28.2651 37 27.9999V18.9999H34L44.327 9.61192C44.5111 9.4444 44.7511 9.35156 45 9.35156C45.2489 9.35156 45.4889 9.4444 45.673 9.61192L56 18.9999H53V27.9999ZM41 22.9999V24.9999H49V22.9999H41Z" fill="#6F45E9"/> <path d="M33.3651 49V40.24H35.0691V49H33.3651ZM27.6171 49V40.24H29.3211V49H27.6171ZM29.0091 45.364V43.864H33.6771V45.364H29.0091ZM40.2265 49.228C39.6505 49.228 39.1425 49.136 38.7025 48.952C38.2625 48.768 37.8905 48.52 37.5865 48.208C37.2825 47.888 37.0505 47.528 36.8905 47.128C36.7385 46.728 36.6625 46.312 36.6625 45.88V45.628C36.6625 45.18 36.7425 44.756 36.9025 44.356C37.0705 43.948 37.3065 43.588 37.6105 43.276C37.9225 42.956 38.2985 42.708 38.7385 42.532C39.1785 42.348 39.6745 42.256 40.2265 42.256C40.7785 42.256 41.2745 42.348 41.7145 42.532C42.1545 42.708 42.5265 42.956 42.8305 43.276C43.1425 43.588 43.3785 43.948 43.5385 44.356C43.6985 44.756 43.7785 45.18 43.7785 45.628V45.88C43.7785 46.312 43.6985 46.728 43.5385 47.128C43.3865 47.528 43.1585 47.888 42.8545 48.208C42.5505 48.52 42.1785 48.768 41.7385 48.952C41.2985 49.136 40.7945 49.228 40.2265 49.228ZM40.2265 47.8C40.6345 47.8 40.9785 47.712 41.2585 47.536C41.5385 47.352 41.7505 47.108 41.8945 46.804C42.0385 46.492 42.1105 46.14 42.1105 45.748C42.1105 45.348 42.0345 44.996 41.8825 44.692C41.7385 44.38 41.5225 44.136 41.2345 43.96C40.9545 43.776 40.6185 43.684 40.2265 43.684C39.8345 43.684 39.4945 43.776 39.2065 43.96C38.9265 44.136 38.7105 44.38 38.5585 44.692C38.4065 44.996 38.3305 45.348 38.3305 45.748C38.3305 46.14 38.4025 46.492 38.5465 46.804C38.6985 47.108 38.9145 47.352 39.1945 47.536C39.4745 47.712 39.8185 47.8 40.2265 47.8ZM45.239 49V42.484H46.559V45.28H46.439C46.439 44.624 46.523 44.076 46.691 43.636C46.859 43.188 47.107 42.852 47.435 42.628C47.771 42.396 48.187 42.28 48.683 42.28H48.755C49.259 42.28 49.675 42.396 50.003 42.628C50.339 42.852 50.587 43.188 50.747 43.636C50.915 44.076 50.999 44.624 50.999 45.28H50.579C50.579 44.624 50.663 44.076 50.831 43.636C51.007 43.188 51.259 42.852 51.587 42.628C51.923 42.396 52.339 42.28 52.835 42.28H52.907C53.411 42.28 53.831 42.396 54.167 42.628C54.503 42.852 54.755 43.188 54.923 43.636C55.099 44.076 55.187 44.624 55.187 45.28V49H53.519V45.124C53.519 44.716 53.415 44.392 53.207 44.152C52.999 43.904 52.703 43.78 52.319 43.78C51.935 43.78 51.627 43.908 51.395 44.164C51.163 44.412 51.047 44.748 51.047 45.172V49H49.379V45.124C49.379 44.716 49.275 44.392 49.067 44.152C48.859 43.904 48.563 43.78 48.179 43.78C47.795 43.78 47.487 43.908 47.255 44.164C47.023 44.412 46.907 44.748 46.907 45.172V49H45.239ZM59.8855 49.228C59.3255 49.228 58.8335 49.132 58.4095 48.94C57.9935 48.748 57.6455 48.492 57.3655 48.172C57.0935 47.844 56.8855 47.48 56.7415 47.08C56.6055 46.68 56.5375 46.272 56.5375 45.856V45.628C56.5375 45.196 56.6055 44.78 56.7415 44.38C56.8855 43.972 57.0935 43.612 57.3655 43.3C57.6455 42.98 57.9895 42.728 58.3975 42.544C58.8055 42.352 59.2775 42.256 59.8135 42.256C60.5175 42.256 61.1055 42.412 61.5775 42.724C62.0575 43.028 62.4175 43.432 62.6575 43.936C62.8975 44.432 63.0175 44.968 63.0175 45.544V46.144H57.2455V45.124H61.9735L61.4575 45.628C61.4575 45.212 61.3975 44.856 61.2775 44.56C61.1575 44.264 60.9735 44.036 60.7255 43.876C60.4855 43.716 60.1815 43.636 59.8135 43.636C59.4455 43.636 59.1335 43.72 58.8775 43.888C58.6215 44.056 58.4255 44.3 58.2895 44.62C58.1615 44.932 58.0975 45.308 58.0975 45.748C58.0975 46.156 58.1615 46.52 58.2895 46.84C58.4175 47.152 58.6135 47.4 58.8775 47.584C59.1415 47.76 59.4775 47.848 59.8855 47.848C60.2935 47.848 60.6255 47.768 60.8815 47.608C61.1375 47.44 61.3015 47.236 61.3735 46.996H62.9095C62.8135 47.444 62.6295 47.836 62.3575 48.172C62.0855 48.508 61.7375 48.768 61.3135 48.952C60.8975 49.136 60.4215 49.228 59.8855 49.228Z" fill="#6F45E9"/> </svg>