<svg width="90" height="62" viewBox="0 0 90 62" fill="none" xmlns="http://www.w3.org/2000/svg">
<path d="M52 28.9999H38C37.7348 28.9999 37.4804 28.8946 37.2929 28.707C37.1054 28.5195 37 28.2651 37 27.9999V18.9999H34L44.327 9.61192C44.5111 9.4444 44.7511 9.35156 45 9.35156C45.2489 9.35156 45.4889 9.4444 45.673 9.61192L56 18.9999H53V27.9999C53 28.2651 52.8946 28.5195 52.7071 28.707C52.5196 28.8946 52.2652 28.9999 52 28.9999ZM39 26.9999H51V17.1569L45 11.7029L39 17.1569V26.9999ZM41 22.9999H49V24.9999H41V22.9999Z" fill="#191919"/>
<path d="M33.8426 49V40.24H35.0186V49H33.8426ZM27.9146 49V40.24H29.0906V49H27.9146ZM28.8506 45.172V44.116H34.0826V45.172H28.8506ZM40.3431 49.216C39.7831 49.216 39.2911 49.12 38.8671 48.928C38.4431 48.736 38.0831 48.484 37.7871 48.172C37.4991 47.852 37.2791 47.496 37.1271 47.104C36.9831 46.712 36.9111 46.312 36.9111 45.904V45.688C36.9111 45.28 36.9871 44.88 37.1391 44.488C37.2911 44.088 37.5151 43.732 37.8111 43.42C38.1071 43.1 38.4671 42.848 38.8911 42.664C39.3151 42.472 39.7991 42.376 40.3431 42.376C40.8871 42.376 41.3711 42.472 41.7951 42.664C42.2191 42.848 42.5791 43.1 42.8751 43.42C43.1711 43.732 43.3951 44.088 43.5471 44.488C43.6991 44.88 43.7751 45.28 43.7751 45.688V45.904C43.7751 46.312 43.6991 46.712 43.5471 47.104C43.4031 47.496 43.1831 47.852 42.8871 48.172C42.5991 48.484 42.2431 48.736 41.8191 48.928C41.3951 49.12 40.9031 49.216 40.3431 49.216ZM40.3431 48.184C40.8231 48.184 41.2311 48.08 41.5671 47.872C41.9111 47.656 42.1711 47.368 42.3471 47.008C42.5311 46.648 42.6231 46.244 42.6231 45.796C42.6231 45.34 42.5311 44.932 42.3471 44.572C42.1631 44.212 41.8991 43.928 41.5551 43.72C41.2191 43.512 40.8151 43.408 40.3431 43.408C39.8791 43.408 39.4751 43.512 39.1311 43.72C38.7871 43.928 38.5231 44.212 38.3391 44.572C38.1551 44.932 38.0631 45.34 38.0631 45.796C38.0631 46.244 38.1511 46.648 38.3271 47.008C38.5111 47.368 38.7711 47.656 39.1071 47.872C39.4511 48.08 39.8631 48.184 40.3431 48.184ZM45.5005 49V42.592H46.4125V45.34H46.2685C46.2685 44.716 46.3485 44.188 46.5085 43.756C46.6765 43.316 46.9245 42.98 47.2525 42.748C47.5805 42.516 47.9965 42.4 48.5005 42.4H48.5485C49.0525 42.4 49.4685 42.516 49.7965 42.748C50.1325 42.98 50.3805 43.316 50.5405 43.756C50.7005 44.188 50.7805 44.716 50.7805 45.34H50.4445C50.4445 44.716 50.5285 44.188 50.6965 43.756C50.8645 43.316 51.1125 42.98 51.4405 42.748C51.7765 42.516 52.1965 42.4 52.7005 42.4H52.7485C53.2525 42.4 53.6725 42.516 54.0085 42.748C54.3445 42.98 54.5925 43.316 54.7525 43.756C54.9205 44.188 55.0045 44.716 55.0045 45.34V49H53.8525V45.088C53.8525 44.568 53.7245 44.168 53.4685 43.888C53.2125 43.6 52.8565 43.456 52.4005 43.456C51.9285 43.456 51.5485 43.608 51.2605 43.912C50.9725 44.208 50.8285 44.624 50.8285 45.16V49H49.6765V45.088C49.6765 44.568 49.5485 44.168 49.2925 43.888C49.0365 43.6 48.6805 43.456 48.2245 43.456C47.7525 43.456 47.3725 43.608 47.0845 43.912C46.7965 44.208 46.6525 44.624 46.6525 45.16V49H45.5005ZM59.8378 49.216C59.2778 49.216 58.7938 49.12 58.3858 48.928C57.9778 48.736 57.6458 48.484 57.3898 48.172C57.1338 47.852 56.9418 47.496 56.8138 47.104C56.6938 46.712 56.6338 46.312 56.6338 45.904V45.688C56.6338 45.272 56.6938 44.868 56.8138 44.476C56.9418 44.084 57.1338 43.732 57.3898 43.42C57.6458 43.1 57.9698 42.848 58.3618 42.664C58.7618 42.472 59.2298 42.376 59.7658 42.376C60.4618 42.376 61.0338 42.528 61.4818 42.832C61.9378 43.128 62.2738 43.512 62.4898 43.984C62.7138 44.456 62.8258 44.96 62.8258 45.496V46.012H57.1378V45.148H61.9858L61.7218 45.616C61.7218 45.16 61.6498 44.768 61.5058 44.44C61.3618 44.104 61.1458 43.844 60.8578 43.66C60.5698 43.476 60.2058 43.384 59.7658 43.384C59.3098 43.384 58.9298 43.488 58.6258 43.696C58.3298 43.904 58.1058 44.188 57.9538 44.548C57.8098 44.908 57.7378 45.324 57.7378 45.796C57.7378 46.252 57.8098 46.664 57.9538 47.032C58.1058 47.392 58.3378 47.68 58.6498 47.896C58.9618 48.104 59.3578 48.208 59.8378 48.208C60.3418 48.208 60.7498 48.096 61.0618 47.872C61.3818 47.648 61.5738 47.388 61.6378 47.092H62.7178C62.6298 47.532 62.4538 47.912 62.1898 48.232C61.9258 48.552 61.5938 48.796 61.1938 48.964C60.7938 49.132 60.3418 49.216 59.8378 49.216Z" fill="#535D66"/>
</svg>
