<svg width="42" height="42" viewBox="0 0 42 42" fill="none" xmlns="http://www.w3.org/2000/svg">
<path d="M15 12.6667H27V14H15V12.6667ZM21.6667 3.88537V11.3334H20.3333V3.88537L16.286 7.93337L15.3433 6.99071L21 1.33337L26.6567 6.99004L25.714 7.93271L21.6667 3.88671V3.88537Z" fill="white"/>
<path d="M3.33928 37V29.056H4.51528V37H3.33928ZM0.675281 29.296V28.24H7.17928V29.296H0.675281ZM10.7708 37.216C10.2108 37.216 9.71884 37.12 9.29484 36.928C8.87084 36.736 8.51084 36.484 8.21484 36.172C7.92684 35.852 7.70684 35.496 7.55484 35.104C7.41084 34.712 7.33884 34.312 7.33884 33.904V33.688C7.33884 33.28 7.41484 32.88 7.56684 32.488C7.71884 32.088 7.94284 31.732 8.23884 31.42C8.53484 31.1 8.89484 30.848 9.31884 30.664C9.74284 30.472 10.2268 30.376 10.7708 30.376C11.3148 30.376 11.7988 30.472 12.2228 30.664C12.6468 30.848 13.0068 31.1 13.3028 31.42C13.5988 31.732 13.8228 32.088 13.9748 32.488C14.1268 32.88 14.2028 33.28 14.2028 33.688V33.904C14.2028 34.312 14.1268 34.712 13.9748 35.104C13.8308 35.496 13.6108 35.852 13.3148 36.172C13.0268 36.484 12.6708 36.736 12.2468 36.928C11.8228 37.12 11.3308 37.216 10.7708 37.216ZM10.7708 36.184C11.2508 36.184 11.6588 36.08 11.9948 35.872C12.3388 35.656 12.5988 35.368 12.7748 35.008C12.9588 34.648 13.0508 34.244 13.0508 33.796C13.0508 33.34 12.9588 32.932 12.7748 32.572C12.5908 32.212 12.3268 31.928 11.9828 31.72C11.6468 31.512 11.2428 31.408 10.7708 31.408C10.3068 31.408 9.90284 31.512 9.55884 31.72C9.21484 31.928 8.95084 32.212 8.76684 32.572C8.58284 32.932 8.49084 33.34 8.49084 33.796C8.49084 34.244 8.57884 34.648 8.75484 35.008C8.93884 35.368 9.19884 35.656 9.53484 35.872C9.87884 36.08 10.2908 36.184 10.7708 36.184ZM15.9282 39.4V30.592H16.8402V33.364L16.6242 33.34C16.6642 32.652 16.8082 32.092 17.0562 31.66C17.3122 31.22 17.6442 30.896 18.0522 30.688C18.4602 30.48 18.9042 30.376 19.3842 30.376C19.8482 30.376 20.2682 30.464 20.6442 30.64C21.0282 30.816 21.3562 31.056 21.6282 31.36C21.9002 31.664 22.1082 32.016 22.2522 32.416C22.3962 32.816 22.4682 33.24 22.4682 33.688V33.904C22.4682 34.352 22.3922 34.776 22.2402 35.176C22.0882 35.576 21.8722 35.928 21.5922 36.232C21.3202 36.536 20.9922 36.776 20.6082 36.952C20.2322 37.128 19.8162 37.216 19.3602 37.216C18.9042 37.216 18.4682 37.116 18.0522 36.916C17.6362 36.716 17.2922 36.392 17.0202 35.944C16.7482 35.496 16.5922 34.908 16.5522 34.18L17.0802 35.14V39.4H15.9282ZM19.1802 36.208C19.6122 36.208 19.9882 36.108 20.3082 35.908C20.6282 35.7 20.8762 35.416 21.0522 35.056C21.2282 34.688 21.3162 34.268 21.3162 33.796C21.3162 33.316 21.2282 32.896 21.0522 32.536C20.8762 32.176 20.6282 31.896 20.3082 31.696C19.9882 31.488 19.6122 31.384 19.1802 31.384C18.7962 31.384 18.4402 31.472 18.1122 31.648C17.7842 31.816 17.5202 32.064 17.3202 32.392C17.1282 32.712 17.0322 33.1 17.0322 33.556V34.108C17.0322 34.548 17.1322 34.924 17.3322 35.236C17.5322 35.548 17.7962 35.788 18.1242 35.956C18.4522 36.124 18.8042 36.208 19.1802 36.208ZM29.1521 37.192C28.3921 37.192 27.8081 36.944 27.4001 36.448C26.9921 35.952 26.7881 35.236 26.7881 34.3V30.58H27.9401V34.528C27.9401 35.032 28.0761 35.428 28.3481 35.716C28.6201 35.996 28.9881 36.136 29.4521 36.136C29.9321 36.136 30.3241 35.984 30.6281 35.68C30.9321 35.368 31.0841 34.944 31.0841 34.408V30.58H32.2361V37H31.3241V34.252H31.4681C31.4681 34.884 31.3841 35.42 31.2161 35.86C31.0481 36.292 30.7961 36.624 30.4601 36.856C30.1321 37.08 29.7121 37.192 29.2001 37.192H29.1521ZM34.4673 39.4V30.592H35.3793V33.364L35.1633 33.34C35.2033 32.652 35.3473 32.092 35.5953 31.66C35.8513 31.22 36.1833 30.896 36.5913 30.688C36.9993 30.48 37.4433 30.376 37.9233 30.376C38.3873 30.376 38.8073 30.464 39.1833 30.64C39.5673 30.816 39.8953 31.056 40.1673 31.36C40.4393 31.664 40.6473 32.016 40.7913 32.416C40.9353 32.816 41.0073 33.24 41.0073 33.688V33.904C41.0073 34.352 40.9313 34.776 40.7793 35.176C40.6273 35.576 40.4113 35.928 40.1313 36.232C39.8593 36.536 39.5313 36.776 39.1473 36.952C38.7713 37.128 38.3553 37.216 37.8993 37.216C37.4433 37.216 37.0073 37.116 36.5913 36.916C36.1753 36.716 35.8313 36.392 35.5593 35.944C35.2873 35.496 35.1313 34.908 35.0913 34.18L35.6193 35.14V39.4H34.4673ZM37.7193 36.208C38.1513 36.208 38.5273 36.108 38.8473 35.908C39.1673 35.7 39.4153 35.416 39.5913 35.056C39.7673 34.688 39.8553 34.268 39.8553 33.796C39.8553 33.316 39.7673 32.896 39.5913 32.536C39.4153 32.176 39.1673 31.896 38.8473 31.696C38.5273 31.488 38.1513 31.384 37.7193 31.384C37.3353 31.384 36.9793 31.472 36.6513 31.648C36.3233 31.816 36.0593 32.064 35.8593 32.392C35.6673 32.712 35.5713 33.1 35.5713 33.556V34.108C35.5713 34.548 35.6713 34.924 35.8713 35.236C36.0713 35.548 36.3353 35.788 36.6633 35.956C36.9913 36.124 37.3433 36.208 37.7193 36.208Z" fill="white"/>
</svg>
