<svg width="50" height="42" viewBox="0 0 50 42" fill="none" xmlns="http://www.w3.org/2000/svg">
<path d="M29.9167 10.0687C30.3492 9.0409 30.4488 7.90337 30.2014 6.81605C29.954 5.72873 29.372 4.74629 28.5373 4.00687C27.7026 3.26744 26.6571 2.80821 25.5479 2.69374C24.4387 2.57927 23.3215 2.81532 22.3533 3.3687L21.692 2.2107C22.7038 1.63244 23.8495 1.32961 25.0148 1.33242C26.1801 1.33522 27.3244 1.64357 28.3333 2.2267C31.3267 3.9547 32.4733 7.6547 31.078 10.74L31.9727 11.256L29.196 12.732L29.086 9.58936L29.9167 10.0687ZM20.0833 5.93136C19.6508 6.95916 19.5512 8.09669 19.7986 9.18401C20.046 10.2713 20.628 11.2538 21.4627 11.9932C22.2974 12.7326 23.3429 13.1919 24.4521 13.3063C25.5613 13.4208 26.6786 13.1847 27.6467 12.6314L28.308 13.7894C27.2963 14.3676 26.1505 14.6705 24.9852 14.6676C23.8199 14.6648 22.6756 14.3565 21.6667 13.7734C18.6733 12.0454 17.5267 8.34536 18.922 5.26003L18.0267 4.7447L20.8033 3.2687L20.9133 6.41136L20.0827 5.93203L20.0833 5.93136ZM25.9433 9.88536L24.056 8.00003L22.1707 9.88536L21.228 8.9427L24.0567 6.1147L25.9427 8.00003L27.8287 6.1147L28.7713 7.05736L25.9427 9.88536H25.9433Z" fill="white"/>
<path d="M3.2553 37V29.056H4.4313V37H3.2553ZM0.591297 29.296V28.24H7.0953V29.296H0.591297ZM8.14502 37V30.592H9.05702V33.232H9.00902C9.00902 32.296 9.21302 31.612 9.62102 31.18C10.037 30.74 10.657 30.52 11.481 30.52H11.697V31.552H11.289C10.649 31.552 10.157 31.724 9.81302 32.068C9.46902 32.404 9.29702 32.892 9.29702 33.532V37H8.14502ZM16.9195 37V35.08H16.7275V32.86C16.7275 32.42 16.6115 32.088 16.3795 31.864C16.1555 31.64 15.8235 31.528 15.3835 31.528C15.1355 31.528 14.8795 31.532 14.6155 31.54C14.3515 31.548 14.0995 31.556 13.8595 31.564C13.6195 31.572 13.4115 31.584 13.2355 31.6V30.592C13.4115 30.576 13.5955 30.564 13.7875 30.556C13.9875 30.54 14.1915 30.532 14.3995 30.532C14.6075 30.524 14.8075 30.52 14.9995 30.52C15.6555 30.52 16.1915 30.6 16.6075 30.76C17.0235 30.912 17.3315 31.164 17.5315 31.516C17.7315 31.868 17.8315 32.344 17.8315 32.944V37H16.9195ZM14.8195 37.168C14.3395 37.168 13.9235 37.088 13.5715 36.928C13.2275 36.76 12.9595 36.52 12.7675 36.208C12.5835 35.896 12.4915 35.52 12.4915 35.08C12.4915 34.624 12.5915 34.244 12.7915 33.94C12.9995 33.636 13.2995 33.408 13.6915 33.256C14.0835 33.096 14.5555 33.016 15.1075 33.016H16.8475V33.88H15.0595C14.5955 33.88 14.2395 33.992 13.9915 34.216C13.7435 34.44 13.6195 34.728 13.6195 35.08C13.6195 35.432 13.7435 35.716 13.9915 35.932C14.2395 36.148 14.5955 36.256 15.0595 36.256C15.3315 36.256 15.5915 36.208 15.8395 36.112C16.0875 36.008 16.2915 35.84 16.4515 35.608C16.6195 35.368 16.7115 35.04 16.7275 34.624L17.0395 35.08C16.9995 35.536 16.8875 35.92 16.7035 36.232C16.5275 36.536 16.2795 36.768 15.9595 36.928C15.6475 37.088 15.2675 37.168 14.8195 37.168ZM19.9458 37V30.592H20.8578V33.34H20.7138C20.7138 32.708 20.7978 32.176 20.9658 31.744C21.1418 31.304 21.4058 30.972 21.7578 30.748C22.1098 30.516 22.5538 30.4 23.0898 30.4H23.1378C23.9458 30.4 24.5418 30.652 24.9258 31.156C25.3178 31.66 25.5138 32.388 25.5138 33.34V37H24.3618V33.1C24.3618 32.604 24.2218 32.208 23.9418 31.912C23.6618 31.608 23.2778 31.456 22.7898 31.456C22.2858 31.456 21.8778 31.612 21.5658 31.924C21.2538 32.236 21.0978 32.652 21.0978 33.172V37H19.9458ZM29.7216 37.192C28.8816 37.192 28.2296 37.012 27.7656 36.652C27.3096 36.292 27.0736 35.8 27.0576 35.176H28.1376C28.1536 35.424 28.2776 35.66 28.5096 35.884C28.7496 36.1 29.1536 36.208 29.7216 36.208C30.2336 36.208 30.6256 36.108 30.8976 35.908C31.1696 35.7 31.3056 35.448 31.3056 35.152C31.3056 34.888 31.2056 34.684 31.0056 34.54C30.8056 34.388 30.4816 34.288 30.0336 34.24L29.3376 34.168C28.7296 34.104 28.2336 33.924 27.8496 33.628C27.4656 33.324 27.2736 32.9 27.2736 32.356C27.2736 31.948 27.3776 31.6 27.5856 31.312C27.7936 31.016 28.0816 30.792 28.4496 30.64C28.8176 30.48 29.2416 30.4 29.7216 30.4C30.4416 30.4 31.0256 30.56 31.4736 30.88C31.9216 31.2 32.1536 31.676 32.1696 32.308H31.0896C31.0816 32.052 30.9616 31.836 30.7296 31.66C30.5056 31.476 30.1696 31.384 29.7216 31.384C29.2736 31.384 28.9336 31.476 28.7016 31.66C28.4696 31.844 28.3536 32.076 28.3536 32.356C28.3536 32.596 28.4336 32.788 28.5936 32.932C28.7616 33.076 29.0336 33.168 29.4096 33.208L30.1056 33.28C30.7936 33.352 31.3456 33.544 31.7616 33.856C32.1776 34.16 32.3856 34.592 32.3856 35.152C32.3856 35.552 32.2696 35.908 32.0376 36.22C31.8136 36.524 31.5016 36.764 31.1016 36.94C30.7016 37.108 30.2416 37.192 29.7216 37.192ZM34.2232 37V30.268C34.2232 29.556 34.4112 29.032 34.7872 28.696C35.1632 28.36 35.7152 28.192 36.4432 28.192H37.2352V29.152H36.2512C35.9552 29.152 35.7272 29.236 35.5672 29.404C35.4072 29.564 35.3272 29.788 35.3272 30.076V37H34.2232ZM33.3352 31.528V30.664H37.3552V31.528H33.3352ZM41.2792 37.216C40.7192 37.216 40.2352 37.12 39.8272 36.928C39.4192 36.736 39.0872 36.484 38.8312 36.172C38.5752 35.852 38.3832 35.496 38.2552 35.104C38.1352 34.712 38.0752 34.312 38.0752 33.904V33.688C38.0752 33.272 38.1352 32.868 38.2552 32.476C38.3832 32.084 38.5752 31.732 38.8312 31.42C39.0872 31.1 39.4112 30.848 39.8032 30.664C40.2032 30.472 40.6712 30.376 41.2072 30.376C41.9032 30.376 42.4752 30.528 42.9232 30.832C43.3792 31.128 43.7152 31.512 43.9312 31.984C44.1552 32.456 44.2672 32.96 44.2672 33.496V34.012H38.5792V33.148H43.4272L43.1632 33.616C43.1632 33.16 43.0912 32.768 42.9472 32.44C42.8032 32.104 42.5872 31.844 42.2992 31.66C42.0112 31.476 41.6472 31.384 41.2072 31.384C40.7512 31.384 40.3712 31.488 40.0672 31.696C39.7712 31.904 39.5472 32.188 39.3952 32.548C39.2512 32.908 39.1792 33.324 39.1792 33.796C39.1792 34.252 39.2512 34.664 39.3952 35.032C39.5472 35.392 39.7792 35.68 40.0912 35.896C40.4032 36.104 40.7992 36.208 41.2792 36.208C41.7832 36.208 42.1912 36.096 42.5032 35.872C42.8232 35.648 43.0152 35.388 43.0792 35.092H44.1592C44.0712 35.532 43.8952 35.912 43.6312 36.232C43.3672 36.552 43.0352 36.796 42.6352 36.964C42.2352 37.132 41.7832 37.216 41.2792 37.216ZM45.9028 37V30.592H46.8148V33.232H46.7668C46.7668 32.296 46.9708 31.612 47.3788 31.18C47.7948 30.74 48.4148 30.52 49.2388 30.52H49.4548V31.552H49.0468C48.4068 31.552 47.9148 31.724 47.5708 32.068C47.2268 32.404 47.0548 32.892 47.0548 33.532V37H45.9028Z" fill="white"/>
</svg>
