<svg width="60" height="42" viewBox="0 0 60 42" fill="none" xmlns="http://www.w3.org/2000/svg">
<path d="M24 12.6667H36V14H24V12.6667ZM30.6667 8.78137L34.714 4.73337L35.6567 5.67604L30 11.3334L24.3433 5.67671L25.286 4.73337L29.3333 8.78004V1.33337H30.6667V8.78137Z" fill="white"/>
<path d="M3.18689 37L0.822891 28.24H2.03489L4.08689 36.232L3.52289 35.944H4.95089L4.32689 36.232L5.99489 28.6H7.09889L5.19089 37H3.18689ZM8.45489 37L6.35489 28.6H7.49489L9.37889 36.232L8.77889 35.944H10.2189L9.60689 36.232L11.4429 28.24H12.6189L10.4709 37H8.45489ZM14.2539 37V30.592H15.4059V37H14.2539ZM13.2699 31.504V30.592H15.4059V31.504H13.2699ZM14.5779 29.56C14.3219 29.56 14.1299 29.492 14.0019 29.356C13.8819 29.22 13.8219 29.048 13.8219 28.84C13.8219 28.632 13.8819 28.46 14.0019 28.324C14.1299 28.188 14.3219 28.12 14.5779 28.12C14.8339 28.12 15.0219 28.188 15.1419 28.324C15.2699 28.46 15.3339 28.632 15.3339 28.84C15.3339 29.048 15.2699 29.22 15.1419 29.356C15.0219 29.492 14.8339 29.56 14.5779 29.56ZM20.1293 37.072C19.6493 37.072 19.2333 37.004 18.8813 36.868C18.5373 36.732 18.2693 36.5 18.0773 36.172C17.8933 35.836 17.8013 35.384 17.8013 34.816V28.648H18.9053V34.96C18.9053 35.304 18.9973 35.572 19.1813 35.764C19.3733 35.948 19.6413 36.04 19.9853 36.04H21.1133V37.072H20.1293ZM16.6973 31.456V30.592H21.1133V31.456H16.6973ZM22.7427 37V28.24H23.8947V33.472H23.6067C23.6067 32.84 23.6867 32.296 23.8467 31.84C24.0147 31.376 24.2707 31.02 24.6147 30.772C24.9587 30.524 25.3987 30.4 25.9347 30.4H25.9827C26.7507 30.4 27.3307 30.656 27.7227 31.168C28.1147 31.672 28.3107 32.396 28.3107 33.34V37H27.1587V33.1C27.1587 32.58 27.0107 32.176 26.7147 31.888C26.4267 31.6 26.0507 31.456 25.5867 31.456C25.0747 31.456 24.6627 31.628 24.3507 31.972C24.0467 32.308 23.8947 32.752 23.8947 33.304V37H22.7427ZM33.0945 37.216C32.6385 37.216 32.2185 37.132 31.8345 36.964C31.4505 36.796 31.1145 36.56 30.8265 36.256C30.5465 35.952 30.3265 35.6 30.1665 35.2C30.0145 34.8 29.9385 34.368 29.9385 33.904V33.688C29.9385 33.232 30.0145 32.804 30.1665 32.404C30.3185 32.004 30.5305 31.652 30.8025 31.348C31.0825 31.044 31.4105 30.808 31.7865 30.64C32.1705 30.464 32.5945 30.376 33.0585 30.376C33.5465 30.376 33.9905 30.48 34.3905 30.688C34.7905 30.888 35.1185 31.204 35.3745 31.636C35.6305 32.068 35.7745 32.628 35.8065 33.316L35.3265 32.548V28.24H36.4785V37H35.5665V34.156H35.9025C35.8705 34.884 35.7185 35.476 35.4465 35.932C35.1745 36.38 34.8305 36.708 34.4145 36.916C34.0065 37.116 33.5665 37.216 33.0945 37.216ZM33.2505 36.208C33.6425 36.208 33.9985 36.12 34.3185 35.944C34.6385 35.768 34.8945 35.516 35.0865 35.188C35.2785 34.852 35.3745 34.46 35.3745 34.012V33.46C35.3745 33.02 35.2745 32.648 35.0745 32.344C34.8825 32.032 34.6225 31.796 34.2945 31.636C33.9745 31.468 33.6225 31.384 33.2385 31.384C32.8145 31.384 32.4385 31.484 32.1105 31.684C31.7905 31.884 31.5385 32.164 31.3545 32.524C31.1785 32.884 31.0905 33.308 31.0905 33.796C31.0905 34.284 31.1825 34.712 31.3665 35.08C31.5505 35.44 31.8065 35.72 32.1345 35.92C32.4625 36.112 32.8345 36.208 33.2505 36.208ZM38.6919 37V30.592H39.6039V33.232H39.5559C39.5559 32.296 39.7599 31.612 40.1679 31.18C40.5839 30.74 41.2039 30.52 42.0279 30.52H42.2439V31.552H41.8359C41.1959 31.552 40.7039 31.724 40.3599 32.068C40.0159 32.404 39.8439 32.892 39.8439 33.532V37H38.6919ZM47.4663 37V35.08H47.2743V32.86C47.2743 32.42 47.1583 32.088 46.9263 31.864C46.7023 31.64 46.3703 31.528 45.9303 31.528C45.6823 31.528 45.4263 31.532 45.1623 31.54C44.8983 31.548 44.6463 31.556 44.4063 31.564C44.1663 31.572 43.9583 31.584 43.7823 31.6V30.592C43.9583 30.576 44.1423 30.564 44.3343 30.556C44.5343 30.54 44.7383 30.532 44.9463 30.532C45.1543 30.524 45.3543 30.52 45.5463 30.52C46.2023 30.52 46.7383 30.6 47.1543 30.76C47.5703 30.912 47.8783 31.164 48.0783 31.516C48.2783 31.868 48.3783 32.344 48.3783 32.944V37H47.4663ZM45.3663 37.168C44.8863 37.168 44.4703 37.088 44.1183 36.928C43.7743 36.76 43.5063 36.52 43.3143 36.208C43.1303 35.896 43.0383 35.52 43.0383 35.08C43.0383 34.624 43.1383 34.244 43.3383 33.94C43.5463 33.636 43.8463 33.408 44.2383 33.256C44.6303 33.096 45.1023 33.016 45.6543 33.016H47.3943V33.88H45.6063C45.1423 33.88 44.7863 33.992 44.5383 34.216C44.2903 34.44 44.1663 34.728 44.1663 35.08C44.1663 35.432 44.2903 35.716 44.5383 35.932C44.7863 36.148 45.1423 36.256 45.6063 36.256C45.8783 36.256 46.1383 36.208 46.3863 36.112C46.6343 36.008 46.8383 35.84 46.9983 35.608C47.1663 35.368 47.2583 35.04 47.2743 34.624L47.5863 35.08C47.5463 35.536 47.4343 35.92 47.2503 36.232C47.0743 36.536 46.8263 36.768 46.5063 36.928C46.1943 37.088 45.8143 37.168 45.3663 37.168ZM52.3412 37L53.6372 30.808H55.1972L56.7092 37H55.7252L54.2132 30.832H54.5972L53.2892 37H52.3412ZM51.7532 37V36.088H53.0852V37H51.7532ZM51.4892 37L49.6772 30.592H50.7812L52.5452 37H51.4892ZM55.9652 37V36.088H57.2972V37H55.9652ZM56.5052 37L58.0412 30.592H59.0852L57.5132 37H56.5052Z" fill="white"/>
</svg>
