<svg width="90" height="62" viewBox="0 0 90 62" fill="none" xmlns="http://www.w3.org/2000/svg">
<path d="M52 30H38C37.2044 30 36.4413 29.6839 35.8787 29.1213C35.3161 28.5587 35 27.7956 35 27V11C35 10.7348 35.1054 10.4804 35.2929 10.2929C35.4804 10.1054 35.7348 10 36 10H50C50.2652 10 50.5196 10.1054 50.7071 10.2929C50.8946 10.4804 51 10.7348 51 11V23H55V27C55 27.7956 54.6839 28.5587 54.1213 29.1213C53.5587 29.6839 52.7956 30 52 30ZM51 25V27C51 27.2652 51.1054 27.5196 51.2929 27.7071C51.4804 27.8946 51.7348 28 52 28C52.2652 28 52.5196 27.8946 52.7071 27.7071C52.8946 27.5196 53 27.2652 53 27V25H51ZM49 28V12H37V27C37 27.2652 37.1054 27.5196 37.2929 27.7071C37.4804 27.8946 37.7348 28 38 28H49ZM39 15H47V17H39V15ZM39 19H47V21H39V19ZM39 23H44V25H39V23Z" fill="#535D66"/>
<path d="M29.8816 49V40.24H31.0576V49H29.8816ZM23.9536 49V40.24H25.1296V49H23.9536ZM24.8896 45.172V44.116H30.1216V45.172H24.8896ZM33.7422 49V42.592H34.8942V49H33.7422ZM32.7582 43.504V42.592H34.8942V43.504H32.7582ZM34.0662 41.56C33.8102 41.56 33.6182 41.492 33.4902 41.356C33.3702 41.22 33.3102 41.048 33.3102 40.84C33.3102 40.632 33.3702 40.46 33.4902 40.324C33.6182 40.188 33.8102 40.12 34.0662 40.12C34.3222 40.12 34.5102 40.188 34.6302 40.324C34.7582 40.46 34.8222 40.632 34.8222 40.84C34.8222 41.048 34.7582 41.22 34.6302 41.356C34.5102 41.492 34.3222 41.56 34.0662 41.56ZM39.2216 49.192C38.3816 49.192 37.7296 49.012 37.2656 48.652C36.8096 48.292 36.5736 47.8 36.5576 47.176H37.6376C37.6536 47.424 37.7776 47.66 38.0096 47.884C38.2496 48.1 38.6536 48.208 39.2216 48.208C39.7336 48.208 40.1256 48.108 40.3976 47.908C40.6696 47.7 40.8056 47.448 40.8056 47.152C40.8056 46.888 40.7056 46.684 40.5056 46.54C40.3056 46.388 39.9816 46.288 39.5336 46.24L38.8376 46.168C38.2296 46.104 37.7336 45.924 37.3496 45.628C36.9656 45.324 36.7736 44.9 36.7736 44.356C36.7736 43.948 36.8776 43.6 37.0856 43.312C37.2936 43.016 37.5816 42.792 37.9496 42.64C38.3176 42.48 38.7416 42.4 39.2216 42.4C39.9416 42.4 40.5256 42.56 40.9736 42.88C41.4216 43.2 41.6536 43.676 41.6696 44.308H40.5896C40.5816 44.052 40.4616 43.836 40.2296 43.66C40.0056 43.476 39.6696 43.384 39.2216 43.384C38.7736 43.384 38.4336 43.476 38.2016 43.66C37.9696 43.844 37.8536 44.076 37.8536 44.356C37.8536 44.596 37.9336 44.788 38.0936 44.932C38.2616 45.076 38.5336 45.168 38.9096 45.208L39.6056 45.28C40.2936 45.352 40.8456 45.544 41.2616 45.856C41.6776 46.16 41.8856 46.592 41.8856 47.152C41.8856 47.552 41.7696 47.908 41.5376 48.22C41.3136 48.524 41.0016 48.764 40.6016 48.94C40.2016 49.108 39.7416 49.192 39.2216 49.192ZM46.0512 49.072C45.5712 49.072 45.1552 49.004 44.8032 48.868C44.4592 48.732 44.1912 48.5 43.9992 48.172C43.8152 47.836 43.7232 47.384 43.7232 46.816V40.648H44.8272V46.96C44.8272 47.304 44.9192 47.572 45.1032 47.764C45.2952 47.948 45.5632 48.04 45.9072 48.04H47.0352V49.072H46.0512ZM42.6192 43.456V42.592H47.0352V43.456H42.6192ZM51.5697 49.216C51.0097 49.216 50.5177 49.12 50.0937 48.928C49.6697 48.736 49.3097 48.484 49.0137 48.172C48.7257 47.852 48.5057 47.496 48.3537 47.104C48.2097 46.712 48.1377 46.312 48.1377 45.904V45.688C48.1377 45.28 48.2137 44.88 48.3657 44.488C48.5177 44.088 48.7417 43.732 49.0377 43.42C49.3337 43.1 49.6937 42.848 50.1177 42.664C50.5417 42.472 51.0257 42.376 51.5697 42.376C52.1137 42.376 52.5977 42.472 53.0217 42.664C53.4457 42.848 53.8057 43.1 54.1017 43.42C54.3977 43.732 54.6217 44.088 54.7737 44.488C54.9257 44.88 55.0017 45.28 55.0017 45.688V45.904C55.0017 46.312 54.9257 46.712 54.7737 47.104C54.6297 47.496 54.4097 47.852 54.1137 48.172C53.8257 48.484 53.4697 48.736 53.0457 48.928C52.6217 49.12 52.1297 49.216 51.5697 49.216ZM51.5697 48.184C52.0497 48.184 52.4577 48.08 52.7937 47.872C53.1377 47.656 53.3977 47.368 53.5737 47.008C53.7577 46.648 53.8497 46.244 53.8497 45.796C53.8497 45.34 53.7577 44.932 53.5737 44.572C53.3897 44.212 53.1257 43.928 52.7817 43.72C52.4457 43.512 52.0417 43.408 51.5697 43.408C51.1057 43.408 50.7017 43.512 50.3577 43.72C50.0137 43.928 49.7497 44.212 49.5657 44.572C49.3817 44.932 49.2897 45.34 49.2897 45.796C49.2897 46.244 49.3777 46.648 49.5537 47.008C49.7377 47.368 49.9977 47.656 50.3337 47.872C50.6777 48.08 51.0897 48.184 51.5697 48.184ZM56.727 49V42.592H57.639V45.232H57.591C57.591 44.296 57.795 43.612 58.203 43.18C58.619 42.74 59.239 42.52 60.063 42.52H60.279V43.552H59.871C59.231 43.552 58.739 43.724 58.395 44.068C58.051 44.404 57.879 44.892 57.879 45.532V49H56.727ZM61.4279 51.496V50.464H62.3519C62.6239 50.464 62.8519 50.428 63.0359 50.356C63.2279 50.292 63.3839 50.18 63.5039 50.02C63.6319 49.86 63.7359 49.648 63.8159 49.384L65.8319 42.592H66.9599L64.8239 49.684C64.6959 50.108 64.5159 50.452 64.2839 50.716C64.0519 50.988 63.7679 51.184 63.4319 51.304C63.1039 51.432 62.7199 51.496 62.2799 51.496H61.4279ZM63.3839 48.856V47.896H64.7759V48.856H63.3839ZM63.2639 48.856L60.9719 42.592H62.1479L64.3439 48.856H63.2639Z" fill="#535D66"/>
</svg>
