<svg width="90" height="62" viewBox="0 0 90 62" fill="none" xmlns="http://www.w3.org/2000/svg">
      <mask id="path-1-inside-1_458_1135" fill="white">
            <path d="M0 0H90V62H0V0Z"/>
      </mask>
      <path d="M0 2H90V-2H0V2Z" fill="#6F45E9" mask="url(#path-1-inside-1_458_1135)"/>
      <path d="M52 30H38C37.2044 30 36.4413 29.6839 35.8787 29.1213C35.3161 28.5587 35 27.7956 35 27V11C35 10.7348 35.1054 10.4804 35.2929 10.2929C35.4804 10.1054 35.7348 10 36 10H50C50.2652 10 50.5196 10.1054 50.7071 10.2929C50.8946 10.4804 51 10.7348 51 11V23H55V27C55 27.7956 54.6839 28.5587 54.1213 29.1213C53.5587 29.6839 52.7956 30 52 30ZM51 25V27C51 27.2652 51.1054 27.5196 51.2929 27.7071C51.4804 27.8946 51.7348 28 52 28C52.2652 28 52.5196 27.8946 52.7071 27.7071C52.8946 27.5196 53 27.2652 53 27V25H51ZM39 15V17H47V15H39ZM39 19V21H47V19H39ZM39 23V25H44V23H39Z" fill="#6F45E9"/>
      <path d="M29.1698 49V40.24H30.8738V49H29.1698ZM23.4218 49V40.24H25.1258V49H23.4218ZM24.8138 45.364V43.864H29.4818V45.364H24.8138ZM33.2112 49V42.484H34.8792V49H33.2112ZM32.2992 43.732V42.484H34.8792V43.732H32.2992ZM33.8232 41.704C33.4952 41.704 33.2512 41.62 33.0912 41.452C32.9392 41.276 32.8632 41.06 32.8632 40.804C32.8632 40.532 32.9392 40.312 33.0912 40.144C33.2512 39.976 33.4952 39.892 33.8232 39.892C34.1512 39.892 34.3912 39.976 34.5432 40.144C34.6952 40.312 34.7712 40.532 34.7712 40.804C34.7712 41.06 34.6952 41.276 34.5432 41.452C34.3912 41.62 34.1512 41.704 33.8232 41.704ZM39.1655 49.204C38.2695 49.204 37.5655 49.016 37.0535 48.64C36.5495 48.256 36.2855 47.728 36.2615 47.056H37.7615C37.7855 47.28 37.9095 47.484 38.1335 47.668C38.3575 47.852 38.7095 47.944 39.1895 47.944C39.5895 47.944 39.9055 47.872 40.1375 47.728C40.3775 47.584 40.4975 47.388 40.4975 47.14C40.4975 46.924 40.4055 46.752 40.2215 46.624C40.0455 46.496 39.7415 46.412 39.3095 46.372L38.7335 46.312C38.0055 46.232 37.4455 46.024 37.0535 45.688C36.6615 45.352 36.4655 44.904 36.4655 44.344C36.4655 43.896 36.5775 43.52 36.8015 43.216C37.0255 42.912 37.3335 42.684 37.7255 42.532C38.1255 42.372 38.5815 42.292 39.0935 42.292C39.8935 42.292 40.5415 42.468 41.0375 42.82C41.5335 43.172 41.7935 43.688 41.8175 44.368H40.3175C40.3015 44.144 40.1895 43.952 39.9815 43.792C39.7735 43.632 39.4735 43.552 39.0815 43.552C38.7295 43.552 38.4575 43.62 38.2655 43.756C38.0735 43.892 37.9775 44.068 37.9775 44.284C37.9775 44.492 38.0535 44.652 38.2055 44.764C38.3655 44.876 38.6215 44.952 38.9735 44.992L39.5495 45.052C40.3175 45.132 40.9175 45.344 41.3495 45.688C41.7895 46.032 42.0095 46.496 42.0095 47.08C42.0095 47.512 41.8895 47.888 41.6495 48.208C41.4175 48.52 41.0895 48.764 40.6655 48.94C40.2415 49.116 39.7415 49.204 39.1655 49.204ZM46.2195 49.084C45.6195 49.084 45.1235 49.008 44.7315 48.856C44.3475 48.696 44.0595 48.432 43.8675 48.064C43.6755 47.688 43.5795 47.184 43.5795 46.552L43.5915 40.648H45.1515L45.1395 46.66C45.1395 46.98 45.2235 47.228 45.3915 47.404C45.5675 47.572 45.8155 47.656 46.1355 47.656H47.1555V49.084H46.2195ZM42.5475 43.708V42.484H47.1555V43.708H42.5475ZM51.6523 49.228C51.0763 49.228 50.5683 49.136 50.1283 48.952C49.6883 48.768 49.3163 48.52 49.0123 48.208C48.7083 47.888 48.4763 47.528 48.3163 47.128C48.1643 46.728 48.0883 46.312 48.0883 45.88V45.628C48.0883 45.18 48.1683 44.756 48.3283 44.356C48.4963 43.948 48.7323 43.588 49.0363 43.276C49.3483 42.956 49.7243 42.708 50.1643 42.532C50.6043 42.348 51.1003 42.256 51.6523 42.256C52.2043 42.256 52.7003 42.348 53.1403 42.532C53.5803 42.708 53.9523 42.956 54.2563 43.276C54.5683 43.588 54.8043 43.948 54.9643 44.356C55.1243 44.756 55.2043 45.18 55.2043 45.628V45.88C55.2043 46.312 55.1243 46.728 54.9643 47.128C54.8123 47.528 54.5843 47.888 54.2803 48.208C53.9763 48.52 53.6043 48.768 53.1643 48.952C52.7243 49.136 52.2203 49.228 51.6523 49.228ZM51.6523 47.8C52.0603 47.8 52.4043 47.712 52.6843 47.536C52.9643 47.352 53.1763 47.108 53.3203 46.804C53.4643 46.492 53.5363 46.14 53.5363 45.748C53.5363 45.348 53.4603 44.996 53.3083 44.692C53.1643 44.38 52.9483 44.136 52.6603 43.96C52.3803 43.776 52.0443 43.684 51.6523 43.684C51.2603 43.684 50.9203 43.776 50.6323 43.96C50.3523 44.136 50.1363 44.38 49.9843 44.692C49.8323 44.996 49.7563 45.348 49.7563 45.748C49.7563 46.14 49.8283 46.492 49.9723 46.804C50.1243 47.108 50.3403 47.352 50.6203 47.536C50.9003 47.712 51.2443 47.8 51.6523 47.8ZM56.6648 49V42.484H57.9848V45.244H57.9488C57.9488 44.308 58.1488 43.6 58.5488 43.12C58.9488 42.64 59.5368 42.4 60.3128 42.4H60.5528V43.852H60.0968C59.5368 43.852 59.1008 44.004 58.7888 44.308C58.4848 44.604 58.3328 45.036 58.3328 45.604V49H56.6648ZM61.6759 51.568V50.14H62.8999C63.1319 50.14 63.3239 50.108 63.4759 50.044C63.6359 49.988 63.7679 49.892 63.8719 49.756C63.9759 49.628 64.0559 49.448 64.1119 49.216L65.8639 42.484H67.4599L65.5279 49.576C65.3999 50.064 65.2199 50.452 64.9879 50.74C64.7559 51.036 64.4559 51.248 64.0879 51.376C63.7279 51.504 63.2799 51.568 62.7439 51.568H61.6759ZM63.7039 48.856V47.536H65.0959V48.856H63.7039ZM63.1399 48.856L61.0279 42.484H62.7079L64.7119 48.856H63.1399Z" fill="#6F45E9"/>
</svg>
