<svg width="90" height="62" viewBox="0 0 90 62" fill="none" xmlns="http://www.w3.org/2000/svg">
<path d="M51 15H54C54.2652 15 54.5196 15.1054 54.7071 15.2929C54.8946 15.4804 55 15.7348 55 16V28C55 28.2652 54.8946 28.5196 54.7071 28.7071C54.5196 28.8946 54.2652 29 54 29H36C35.7348 29 35.4804 28.8946 35.2929 28.7071C35.1054 28.5196 35 28.2652 35 28V12C35 11.7348 35.1054 11.4804 35.2929 11.2929C35.4804 11.1054 35.7348 11 36 11H51V15ZM37 17V27H53V17H37ZM37 13V15H49V13H37ZM48 21H51V23H48V21Z" fill="#535D66"/>
<path d="M30.5982 49V40.24H32.1582L34.7502 46.084H34.9422L37.5222 40.24H39.0942V49H37.9182V41.524L38.0022 41.548L35.5182 47.188H34.0782L31.5822 41.548L31.6782 41.524V49H30.5982ZM44.4212 49.216C43.8612 49.216 43.3692 49.12 42.9452 48.928C42.5212 48.736 42.1612 48.484 41.8652 48.172C41.5772 47.852 41.3572 47.496 41.2052 47.104C41.0612 46.712 40.9892 46.312 40.9892 45.904V45.688C40.9892 45.28 41.0652 44.88 41.2172 44.488C41.3692 44.088 41.5932 43.732 41.8892 43.42C42.1852 43.1 42.5452 42.848 42.9692 42.664C43.3932 42.472 43.8772 42.376 44.4212 42.376C44.9652 42.376 45.4492 42.472 45.8732 42.664C46.2972 42.848 46.6572 43.1 46.9532 43.42C47.2492 43.732 47.4732 44.088 47.6252 44.488C47.7772 44.88 47.8532 45.28 47.8532 45.688V45.904C47.8532 46.312 47.7772 46.712 47.6252 47.104C47.4812 47.496 47.2612 47.852 46.9652 48.172C46.6772 48.484 46.3212 48.736 45.8972 48.928C45.4732 49.12 44.9812 49.216 44.4212 49.216ZM44.4212 48.184C44.9012 48.184 45.3092 48.08 45.6452 47.872C45.9892 47.656 46.2492 47.368 46.4252 47.008C46.6092 46.648 46.7012 46.244 46.7012 45.796C46.7012 45.34 46.6092 44.932 46.4252 44.572C46.2412 44.212 45.9772 43.928 45.6332 43.72C45.2972 43.512 44.8932 43.408 44.4212 43.408C43.9572 43.408 43.5532 43.512 43.2092 43.72C42.8652 43.928 42.6012 44.212 42.4172 44.572C42.2332 44.932 42.1412 45.34 42.1412 45.796C42.1412 46.244 42.2292 46.648 42.4052 47.008C42.5892 47.368 42.8492 47.656 43.1852 47.872C43.5292 48.08 43.9412 48.184 44.4212 48.184ZM49.5786 49V42.592H50.4906V45.232H50.4426C50.4426 44.296 50.6466 43.612 51.0546 43.18C51.4706 42.74 52.0906 42.52 52.9146 42.52H53.1306V43.552H52.7226C52.0826 43.552 51.5906 43.724 51.2466 44.068C50.9026 44.404 50.7306 44.892 50.7306 45.532V49H49.5786ZM57.1542 49.216C56.5942 49.216 56.1102 49.12 55.7022 48.928C55.2942 48.736 54.9622 48.484 54.7062 48.172C54.4502 47.852 54.2582 47.496 54.1302 47.104C54.0102 46.712 53.9502 46.312 53.9502 45.904V45.688C53.9502 45.272 54.0102 44.868 54.1302 44.476C54.2582 44.084 54.4502 43.732 54.7062 43.42C54.9622 43.1 55.2862 42.848 55.6782 42.664C56.0782 42.472 56.5462 42.376 57.0822 42.376C57.7782 42.376 58.3502 42.528 58.7982 42.832C59.2542 43.128 59.5902 43.512 59.8062 43.984C60.0302 44.456 60.1422 44.96 60.1422 45.496V46.012H54.4542V45.148H59.3022L59.0382 45.616C59.0382 45.16 58.9662 44.768 58.8222 44.44C58.6782 44.104 58.4622 43.844 58.1742 43.66C57.8862 43.476 57.5222 43.384 57.0822 43.384C56.6262 43.384 56.2462 43.488 55.9422 43.696C55.6462 43.904 55.4222 44.188 55.2702 44.548C55.1262 44.908 55.0542 45.324 55.0542 45.796C55.0542 46.252 55.1262 46.664 55.2702 47.032C55.4222 47.392 55.6542 47.68 55.9662 47.896C56.2782 48.104 56.6742 48.208 57.1542 48.208C57.6582 48.208 58.0662 48.096 58.3782 47.872C58.6982 47.648 58.8902 47.388 58.9542 47.092H60.0342C59.9462 47.532 59.7702 47.912 59.5062 48.232C59.2422 48.552 58.9102 48.796 58.5102 48.964C58.1102 49.132 57.6582 49.216 57.1542 49.216Z" fill="#535D66"/>
</svg>
