<svg width="90" height="62" viewBox="0 0 90 62" fill="none" xmlns="http://www.w3.org/2000/svg">
<mask id="path-1-inside-1_458_1437" fill="white">
<path d="M0 0H90V62H0V0Z"/>
</mask>
<path d="M0 2H90V-2H0V2Z" fill="#6F45E9" mask="url(#path-1-inside-1_458_1437)"/>
<path d="M35 17H54C54.2652 17 54.5196 17.1054 54.7071 17.2929C54.8946 17.4804 55 17.7348 55 18V28C55 28.2652 54.8946 28.5196 54.7071 28.7071C54.5196 28.8946 54.2652 29 54 29H36C35.7348 29 35.4804 28.8946 35.2929 28.7071C35.1054 28.5196 35 28.2652 35 28V17ZM36 11H51V15H35V12C35 11.7348 35.1054 11.4804 35.2929 11.2929C35.4804 11.1054 35.7348 11 36 11ZM48 22V24H51V22H48Z" fill="#6F45E9"/>
<path d="M30.0839 49V40.24H32.4119L34.6079 45.472H34.8239L37.0079 40.24H39.3719V49H37.6799V41.524L37.8959 41.548L35.5319 47.212H33.7919L31.4159 41.548L31.6439 41.524V49H30.0839ZM44.5331 49.228C43.9571 49.228 43.4491 49.136 43.0091 48.952C42.5691 48.768 42.1971 48.52 41.8931 48.208C41.5891 47.888 41.3571 47.528 41.1971 47.128C41.0451 46.728 40.9691 46.312 40.9691 45.88V45.628C40.9691 45.18 41.0491 44.756 41.2091 44.356C41.3771 43.948 41.6131 43.588 41.9171 43.276C42.2291 42.956 42.6051 42.708 43.0451 42.532C43.4851 42.348 43.9811 42.256 44.5331 42.256C45.0851 42.256 45.5811 42.348 46.0211 42.532C46.4611 42.708 46.8331 42.956 47.1371 43.276C47.4491 43.588 47.6851 43.948 47.8451 44.356C48.0051 44.756 48.0851 45.18 48.0851 45.628V45.88C48.0851 46.312 48.0051 46.728 47.8451 47.128C47.6931 47.528 47.4651 47.888 47.1611 48.208C46.8571 48.52 46.4851 48.768 46.0451 48.952C45.6051 49.136 45.1011 49.228 44.5331 49.228ZM44.5331 47.8C44.9411 47.8 45.2851 47.712 45.5651 47.536C45.8451 47.352 46.0571 47.108 46.2011 46.804C46.3451 46.492 46.4171 46.14 46.4171 45.748C46.4171 45.348 46.3411 44.996 46.1891 44.692C46.0451 44.38 45.8291 44.136 45.5411 43.96C45.2611 43.776 44.9251 43.684 44.5331 43.684C44.1411 43.684 43.8011 43.776 43.5131 43.96C43.2331 44.136 43.0171 44.38 42.8651 44.692C42.7131 44.996 42.6371 45.348 42.6371 45.748C42.6371 46.14 42.7091 46.492 42.8531 46.804C43.0051 47.108 43.2211 47.352 43.5011 47.536C43.7811 47.712 44.1251 47.8 44.5331 47.8ZM49.5457 49V42.484H50.8657V45.244H50.8297C50.8297 44.308 51.0297 43.6 51.4297 43.12C51.8297 42.64 52.4177 42.4 53.1937 42.4H53.4337V43.852H52.9777C52.4177 43.852 51.9817 44.004 51.6697 44.308C51.3657 44.604 51.2137 45.036 51.2137 45.604V49H49.5457ZM57.4187 49.228C56.8587 49.228 56.3667 49.132 55.9427 48.94C55.5267 48.748 55.1787 48.492 54.8987 48.172C54.6267 47.844 54.4187 47.48 54.2747 47.08C54.1387 46.68 54.0707 46.272 54.0707 45.856V45.628C54.0707 45.196 54.1387 44.78 54.2747 44.38C54.4187 43.972 54.6267 43.612 54.8987 43.3C55.1787 42.98 55.5227 42.728 55.9307 42.544C56.3387 42.352 56.8107 42.256 57.3467 42.256C58.0507 42.256 58.6387 42.412 59.1107 42.724C59.5907 43.028 59.9507 43.432 60.1907 43.936C60.4307 44.432 60.5507 44.968 60.5507 45.544V46.144H54.7787V45.124H59.5067L58.9907 45.628C58.9907 45.212 58.9307 44.856 58.8107 44.56C58.6907 44.264 58.5067 44.036 58.2587 43.876C58.0187 43.716 57.7147 43.636 57.3467 43.636C56.9787 43.636 56.6667 43.72 56.4107 43.888C56.1547 44.056 55.9587 44.3 55.8227 44.62C55.6947 44.932 55.6307 45.308 55.6307 45.748C55.6307 46.156 55.6947 46.52 55.8227 46.84C55.9507 47.152 56.1467 47.4 56.4107 47.584C56.6747 47.76 57.0107 47.848 57.4187 47.848C57.8267 47.848 58.1587 47.768 58.4147 47.608C58.6707 47.44 58.8347 47.236 58.9067 46.996H60.4427C60.3467 47.444 60.1627 47.836 59.8907 48.172C59.6187 48.508 59.2707 48.768 58.8467 48.952C58.4307 49.136 57.9547 49.228 57.4187 49.228Z" fill="#6F45E9"/>
</svg>
